<svg aria-hidden="true" style="width:0;height:0;position:absolute;overflow:hidden" xmlns="http://www.w3.org/2000/svg"><defs><symbol id="icon-logo" viewBox="0 0 108 32"><path fill="#fafafa" style="fill:var(--color1,#fafafa)" d="M96.589 10.105c.288.246.567.499.842.758l.188.172c2.096 1.984 3.308 4.886 3.433 7.744.06 2.549-.571 4.89-2.021 6.989l-.152.228c-1.845 2.623-4.705 4.355-7.848 4.909-.685.096-1.363.104-2.053.105h-.194c-.958-.001-1.873-.041-2.806-.274l-.171-.04c-2.951-.696-5.781-2.712-7.408-5.266-1.004-1.64-1.671-3.544-1.768-5.474l-.013-.251c-.061-2.248.589-4.581 1.782-6.486l.093-.15c1.749-2.776 4.476-4.656 7.655-5.408a9.99 9.99 0 0 0 .188-.045c3.448-.781 7.547.21 10.254 2.487zm-11.284 1.263-.157.068c-.753.336-1.396.759-2.033 1.279l-.199.157c-.851.706-1.514 1.631-1.991 2.622l-.109.213c-.23.47-.395.95-.544 1.45l-.054.181c-.519 1.816-.268 3.792.538 5.482l.107.248c.328.725.792 1.277 1.325 1.858l.181.205c1.372 1.475 3.551 2.573 5.571 2.672 2.883.035 5.081-.483 7.257-2.492 1.693-1.736 2.524-3.888 2.498-6.305-.099-2.472-1.196-4.492-2.959-6.2a10.87 10.87 0 0 0-.506-.427l-.176-.143c-2.484-1.886-5.956-2.088-8.75-.867zM60.3 7.779l.198-.003.214.003.228-.002c.248-.001.498.001.746.003h.524c.367 0 .733.002 1.101.004.465.003.93.003 1.395.003.361-.001.723.001 1.084.002l.513.001c2.33.002 5.027.234 6.78 1.96l.181.184.171.151c.792.715 1.405 1.8 1.766 2.797l.1.274a7.64 7.64 0 0 1-.51 5.661c-.242.446-.51.846-.853 1.223l-.176.203c-.992 1.071-2.33 1.81-3.782 1.987-.31.011-.31.011-.505 0 .395.63.851 1.205 1.313 1.786.184.233.365.468.546.703l.104.136.208.27c.174.228.349.456.525.683l.211.274.105.137.316.41.105.137.211.274.622.808.31.403c.165.216.333.43.503.644l.28.36.136.169c.199.258.308.418.361.744-.052.268-.073.328-.297.481a6.49 6.49 0 0 1-.71.034l-.211.001c-.147 0-.295 0-.442-.002-.225-.001-.45 0-.675.002l-.429-.001-.203.002c-.387-.005-.634-.042-.951-.288-.159-.184-.159-.184-.321-.41l-.198-.273-.113-.156c-.253-.343-.514-.68-.773-1.019-.439-.575-.873-1.153-1.3-1.737a66.744 66.744 0 0 0-1.316-1.73 57.815 57.815 0 0 1-1.177-1.57 59.048 59.048 0 0 0-1.069-1.406c-1.176-1.502-1.176-1.502-1.227-1.89.191-.39.191-.39.421-.505.115-.011.231-.017.347-.021l.218-.007.237-.008.499-.019c.262-.009.523-.019.785-.027 1.856-.061 3.461-.184 4.82-1.603.757-.822.972-1.852.95-2.943-.06-1.226-.688-2.328-1.579-3.15-1.242-.989-3.072-.996-4.583-.989l-.273.001-.852.003-.582.001-1.418.004.001.301c.008 2.361.013 4.723.017 7.084l.001.871.001.175c.001.937.004 1.874.007 2.811l.006 2.883.004 1.619a387.099 387.099 0 0 1 .005 2.084c.002.254.002.509 0 .763.002.074.003.149.003.226-.005.496-.005.496-.197.764-.266.178-.475.167-.794.167l-.177.001c-.124.001-.247 0-.371-.002-.189-.002-.377 0-.566.003l-.36-.002-.33-.001c-.28-.044-.28-.044-.463-.16-.241-.346-.2-.684-.197-1.096l-.002-.273c-.002-.303-.001-.606 0-.909l-.003-.651c-.002-.528-.002-1.056-.001-1.584v-1.472l-.001-.372c-.002-1.164-.001-2.328.001-3.491.001-1.064 0-2.13-.003-3.194-.003-1.093-.003-2.186-.003-3.279V13.654c.001-.429 0-.857-.002-1.286-.002-.577-.001-1.155.001-1.731.001-.212.001-.424-.001-.636-.001-.29 0-.579.003-.867a10.651 10.651 0 0 1-.003-.255c.005-.388.013-.573.248-.893.22-.152.31-.211.571-.211zM44.453 7.819l.319-.003.353-.001.37-.002a245.944 245.944 0 0 1 1.634-.007l1.738-.004c.832-.001 1.663-.004 2.494-.008l1.752-.006c.349 0 .698-.001 1.047-.004.328-.003.657-.003.985-.002.12 0 .241-.001.361-.003.165-.002.329-.001.493.001l.279-.001c.227.051.227.051.382.249.193.445.14.931.139 1.408l.008.326.001.313.002.286c-.052.248-.052.248-.211.429-.381.226-.714.199-1.15.192h-.27c-.296-.001-.59-.003-.885-.007l-.614-.002-1.617-.01c-.864-.007-1.727-.009-2.59-.013-.302-.001-.605-.003-.907-.006l-.552-.003-.257-.003-.233-.001-.203-.002c-.17-.001-.17-.001-.332.093l-.004 2.434-.002 1.129-.002 1.09-.001.416-.001.582-.001.334c-.018.237-.018.237.094.331.133.009.267.012.4.013l.259.002.281.001.583.006c.308.003.616.006.924.007l.888.008.28-.001a17.03 17.03 0 0 0 .488.006c.193.043.193.043.344.199.142.253.135.451.135.739l.001.328-.002.169c-.001.171 0 .342.002.514l-.001.327-.001.299c-.033.248-.033.248-.134.387-.202.151-.331.147-.582.15l-.269.005-.282.002-.26.004c-.321.004-.642.008-.963.01l-2.174.026v6.905l2.306.042c.376.008.376.008.759.014 1.113.019 2.223.031 3.336.019l.296-.003c.459-.004.918-.011 1.378-.02.163-.003.328-.004.492-.006l.223-.008c.357-.002.515.015.815.225.195.288.217.441.215.787l-.001.313-.008.326.001.326c-.008.772-.008.772-.126 1.028-.262.242-.548.205-.887.204l-.224.003c-.246.003-.491.003-.737.004l-.52.005c-.463.004-.926.006-1.389.008l-1.14.007a269.75 269.75 0 0 1-6.167-.011l-.263-.003a56.099 56.099 0 0 1-.708-.014l-.2-.003c-.357-.012-.561-.046-.819-.296-.042-.171-.042-.171-.043-.371a8.746 8.746 0 0 1-.003-.232l.001-.254-.003-.27c-.002-.301-.002-.601-.002-.901l-.004-.644c-.003-.525-.004-1.048-.005-1.572l-.006-1.83c-.005-1.089-.008-2.177-.01-3.266-.003-1.056-.006-2.113-.011-3.169l-.013-3.449-.002-.368v-.183l-.005-1.276c-.003-.573-.004-1.145-.004-1.717l-.003-.631c-.002-.287-.002-.574-.002-.861l-.003-.253c.003-.477.052-.818.285-1.238.228-.114.408-.095.664-.097z"/><path fill="#fafafa" style="fill:var(--color1,#fafafa)" d="m95.747.674.198.042c2.398.531 4.717 1.638 6.52 3.32.173.161.349.313.53.465 2.611 2.297 4.039 5.818 4.29 9.226.082 1.567-.013 3.134-.505 4.631-.084.084-.084.084-.363.105-.321-.022-.429-.046-.647-.274-.087-.259-.106-.495-.125-.766-.23-2.975-1.362-5.714-3.159-8.076l-.184-.243c-.6-.769-1.249-1.496-2.006-2.115l-.132-.111c-2.935-2.467-6.675-3.779-10.499-3.784l-.179-.001c-1.164 0-2.318.076-3.449.365-.368.093-.607.121-.983.078-.253-.211-.253-.211-.421-.421.179-.456.415-.652.837-.874l.179-.096c3.064-1.612 6.7-2.219 10.1-1.472zM26.801 7.788l.104-.002.109.001.114.002.236-.002c.257-.001.514.001.772.003h.002l.541-.001 1.139.003c.482.003.963.003 1.444.002.374-.001.748 0 1.122.001h.531c2.272-.003 4.633.235 6.412 1.805l.145.126.06.052a6.916 6.916 0 0 1 2.178 4.693c.054 1.989-.469 3.743-1.843 5.217-2.237 2.131-4.978 2.238-7.915 2.219-.29-.002-.579-.003-.869-.003l-1.693-.008v.158l-.001.163c-.005.997-.011 1.995-.019 2.992l-.009 1.538-.01 1.485a104.159 104.159 0 0 1-.009 1.356v.242l-.002.105-.002.113-.001.189c-.042.213-.114.288-.285.417a4.16 4.16 0 0 1-.256.027c-.082.006-.164.006-.346.006h-.178l-.37-.002h-.003c-.189-.001-.378 0-.567.002l-.361-.001h-.163l-.168-.001c-.305-.035-.403-.077-.619-.285a1.61 1.61 0 0 1-.036-.168c-.006-.05-.006-.101-.006-.209l-.003-.236.003-.259-.002-.275c-.002-.306-.001-.611.001-.917l-.003-.655v-1.599l.001-1.298v-.187l-.001-.375c-.001-1.174 0-2.348.003-3.521.001-1.007.001-2.015-.001-3.022-.002-1.169-.003-2.339-.002-3.507l.001-.374v-.186l-.001-1.298c-.001-.582-.001-1.164.002-1.746l-.001-.643c-.001-.291.001-.583.003-.874l-.003-.258c.006-.567.006-.567.195-.845.199-.124.298-.158.53-.158l.1-.001zm3.348 3.05-.262.003c-.543.003-.601.164-.604.698V12.467l.002.51.001 1.062c.002.461.003.924.003 1.385a388.081 388.081 0 0 0 .002 1.593l.001.743v.225c0 .238.003.473.013.71.034.034.054.054.079.067.036.019.08.021.188.028h.246l.141.001H32.993c1.507.003 3.098-.032 4.262-1.133l.134-.141c.674-.705.936-1.481.952-2.449-.001-1.229-.32-2.217-1.205-3.11-1.332-1.127-3.2-1.128-4.851-1.124-.312.003-.624.004-.937.004h-.62l-.295.001h-.285zM13.578 7.759c.757-.037.989-.048 1.172.041.081.039.153.099.256.184.141.224.23.441.32.69l.242.525.253.595.142.333.303.71c.229.538.461 1.074.694 1.61l.248.574c.36.833.722 1.665 1.083 2.498l.446 1.027c.72 1.658 1.439 3.317 2.156 4.977l.764 1.766.085.198.085.198.176.407.759 1.753.468 1.083c.16.368.32.736.483 1.103l.286.652.001.002.202.455.121.277.023.053.084.189c.085.265.107.462.075.739-.042.075-.063.114-.093.145-.032.033-.073.057-.159.108a5.027 5.027 0 0 1-.636.039l-.094.001-.095.001c-.131.001-.263.002-.395.001-.2 0-.401.003-.601.008h-.384l-.181.004c-.303-.004-.462-.043-.709-.223-.229-.305-.371-.605-.515-.957l-.089-.211a82.047 82.047 0 0 1-.285-.684l-.2-.475-.307-.729c-.35-.835-.711-1.666-1.072-2.496l-.334-.771-.074-.168a8.42 8.42 0 0 1-.26-.666l-4.686.042-4.83.042-.084.421a5.28 5.28 0 0 1-.13.322l-.04.091-.041.093-.046.103-.042.093-.092.209c-.099.225-.2.45-.3.674l-.121.275-.084.19-.314.71c-.221.5-.441 1.001-.66 1.503l-.023.052-.06.136a214.504 214.504 0 0 1-.514 1.18 6.346 6.346 0 0 1-.075.171l-.042.095c-.321.711-.321.711-.534.924a7.311 7.311 0 0 1-.628.029l-.184.002h-.005l-.396.001c-.201.001-.403.003-.604.007l-.385.001c-.06.002-.12.003-.182.003-.408-.003-.611-.094-.901-.379.051-.454.205-.82.392-1.231l.05-.112.045-.102.204-.457v-.001c.147-.326.292-.652.437-.979l.08-.179.145-.325c.356-.799.707-1.601 1.056-2.403l.177-.406.176-.405.176-.405.002-.005.885-2.031.041-.095.047-.109c.469-1.075.94-2.149 1.411-3.223.476-1.083.95-2.166 1.419-3.251.253-.586.508-1.171.763-1.757l.053-.122.038-.088c.154-.354.308-.707.463-1.059.281-.644.561-1.289.83-1.939l.139-.333.252-.611.043-.103.069-.166.052-.126.044-.107c.263-.446.854-.429 1.363-.415.106.003.208.006.303.004.133-.003.266-.008.399-.013zm.181 5.333a2.888 2.888 0 0 0-.454-.797c-.036.036-.057.057-.074.08a.878.878 0 0 0-.076.148l-.079.194-.053.128-.04.098-.058.14-.157.379-.045.108-.075.181c-.25.603-.502 1.206-.755 1.808l-.172.409a154.091 154.091 0 0 1-1.022 2.393l-.085.193c-.097.221-.194.442-.293.663l-.04.088-.032.071-.028.063a26.31 26.31 0 0 1-.102.231c-.114.256-.114.256-.184.456l.084.169h6.653c0-.085 0-.127-.007-.168s-.022-.08-.05-.157l-.039-.093a136.036 136.036 0 0 1-.357-.849v-.001l-.12-.286a305.37 305.37 0 0 1-.656-1.568l-.071-.171-.243-.581a261.01 261.01 0 0 1-.786-1.897l-.071-.174a12.715 12.715 0 0 1-.071-.174l-.101-.246-.101-.246-.063-.157-.061-.153a15.753 15.753 0 0 0-.051-.124l-.065-.159z"/></symbol><symbol id="icon-arrow-up-right" viewBox="0 0 32 32"><path d="M16 0c8.837 0 16 7.163 16 16s-7.163 16-16 16S0 24.837 0 16 7.163 0 16 0z"/><path fill="none" stroke="#fafafa" style="stroke:var(--color1,#fafafa)" stroke-linejoin="round" stroke-linecap="round" stroke-width="1.6" d="m10.667 21.333 10.667-10.667M10.667 10.667h10.667v10.667"/></symbol><symbol id="icon-like" viewBox="0 0 32 32"><path d="M21.993 4.787c-2.58 0-4.784 1.839-5.995 3.106-1.211-1.268-3.41-3.106-5.989-3.106-4.444 0-7.547 3.098-7.547 7.532 0 4.886 3.854 8.044 7.582 11.099 1.76 1.444 3.582 2.935 4.978 4.59.235.277.58.437.942.437h.071c.363 0 .706-.161.94-.437 1.399-1.654 3.22-3.147 4.981-4.59 3.727-3.054 7.583-6.212 7.583-11.099 0-4.434-3.103-7.532-7.546-7.532z"/></symbol><symbol id="icon-rocket" viewBox="0 0 32 32"><path d="m24.22 3.687.34.043c.899.124 2.088.291 2.761.965.552.551.764 1.447.891 2.247l.075.515a15.557 15.557 0 0 1-.075 4.568c-.565 3.484-2.42 7.641-7.077 10.86a6.164 6.164 0 0 0-.021.757l.013.379c.021.583.043 1.165-.12 1.731-.253.88-1.156 1.46-2 1.876l-.413.196-.533.235c-.997.424-2.344.859-3.188.013-.507-.505-.715-1.247-.884-1.984l-.063-.276c-.071-.348-.16-.693-.267-1.032a17.277 17.277 0 0 0-.216-.593 3.84 3.84 0 0 1-.271.3c-.46.46-1.147.781-1.712 1.007-.617.244-1.316.457-1.963.633l-.332.088-.636.159-.576.133-.689.147-.431.084a1.343 1.343 0 0 1-1.198-.372 1.35 1.35 0 0 1-.372-1.198l.115-.575.205-.931.165-.68.125-.48c.176-.645.389-1.344.635-1.96.224-.567.545-1.253 1.005-1.713l.107-.103-.085-.035a10.636 10.636 0 0 0-.692-.236l-.369-.113c-.925-.28-1.915-.581-2.529-1.197-.747-.745-.495-1.88-.135-2.824l.147-.365.236-.533.196-.413c.416-.843.996-1.745 1.876-1.999.467-.133.952-.141 1.44-.128l.293.009c.381.013.761.028 1.133-.008 3.219-4.659 7.376-6.513 10.86-7.079a15.718 15.718 0 0 1 4.228-.117zm-13.083 16.9a1.337 1.337 0 0 0-1.466-.08l-.147.099-.124.111-.167.211c-.347.501-.544 1.195-.697 1.843l-.144.624-.068.284.255-.061.557-.128c.771-.18 1.625-.413 2.151-.887a1.338 1.338 0 0 0 .118-1.752l-.109-.125-.032-.031-.125-.107zm9.578-9.299a2.67 2.67 0 0 0-3.771 0 2.667 2.667 0 1 0 3.772-.001z"/></symbol><symbol id="icon-calendar" viewBox="0 0 32 32"><path d="M10.333 3.333a.997.997 0 0 0-1-1 .997.997 0 0 0-1 1V5.44c-1.92.153-3.179.529-4.104 1.456-.927.925-1.303 2.185-1.457 4.104h26.456c-.155-1.92-.531-3.179-1.457-4.104-.925-.927-2.185-1.303-4.104-1.457V3.334a.997.997 0 0 0-1-1 .997.997 0 0 0-1 1v2.017c-.887-.017-1.881-.017-3-.017h-5.333c-1.119 0-2.113 0-3 .017V3.334zM2.667 16c0-1.119 0-2.113.017-3h26.632c.017.887.017 1.881.017 3v2.667c0 5.028 0 7.543-1.563 9.104-1.561 1.563-4.076 1.563-9.104 1.563h-5.333c-5.028 0-7.543 0-9.104-1.563-1.563-1.561-1.563-4.076-1.563-9.104V16zm20 2.667a1.333 1.333 0 1 0 .002-2.665 1.333 1.333 0 0 0-.002 2.665zm0 5.333A1.33 1.33 0 0 0 24 22.666 1.333 1.333 0 1 0 22.667 24zm-5.334-6.667a1.333 1.333 0 1 1-2.665.002 1.333 1.333 0 0 1 2.665-.002zm0 5.334a1.333 1.333 0 1 1-2.665.002 1.333 1.333 0 0 1 2.665-.002zm-8-4a1.333 1.333 0 1 0 .002-2.665 1.333 1.333 0 0 0-.002 2.665zm0 5.333a1.335 1.335 0 0 0 .943-2.277A1.334 1.334 0 1 0 9.333 24z"/></symbol><symbol id="icon-ant" viewBox="0 0 32 32"><path d="M27.684 16.678a4.023 4.023 0 0 0 .816-2.428c0-1.403-.784-2.731-2.047-3.472a2.115 2.115 0 0 0-1.072-.291h-7.494l.188-3.841a3.342 3.342 0 0 0-.922-2.481 3.325 3.325 0 0 0-2.434-1.044 3.635 3.635 0 0 0-3.494 2.659l-2.684 9.719h-.009v13.375h14.759c.288 0 .569-.056.828-.169a4.017 4.017 0 0 0 2.278-4.856 4.023 4.023 0 0 0 .647-3.584 4.023 4.023 0 0 0 .816-2.428 4.236 4.236 0 0 0-.175-1.159zM3.5 16.5v11.375a1 1 0 0 0 1 1h2.031V15.5H4.5a1 1 0 0 0-1 1z"/></symbol><symbol id="icon-toys-and-games" viewBox="0 0 28 32"><path d="M3.556 20.385c0-.316.104-.583.312-.8s.459-.326.755-.326c.158 0 .311.025.46.075s.292.124.429.222c.257.158.514.296.77.415s.533.178.83.178c.652 0 1.21-.232 1.675-.696s.696-1.022.696-1.675c0-.652-.232-1.21-.696-1.673s-1.022-.696-1.675-.697c-.296 0-.583.049-.859.148s-.523.247-.741.444c-.119.099-.257.173-.415.223s-.316.074-.474.073c-.296 0-.548-.109-.755-.326s-.311-.484-.312-.8v-4.504c0-.336.114-.617.341-.844s.509-.341.844-.341h4.444a5.556 5.556 0 0 1-.297-1.778c0-1.481.519-2.741 1.556-3.777s2.297-1.555 3.777-1.556c1.481 0 2.741.519 3.778 1.556s1.556 2.296 1.555 3.777a5.44 5.44 0 0 1-.296 1.778h4.444c.336 0 .618.114.845.341s.341.509.34.844v4.504c0 .336-.114.617-.341.845s-.509.341-.844.34c-.158 0-.296-.035-.415-.104s-.237-.153-.356-.251c-.217-.198-.464-.346-.741-.444s-.563-.148-.859-.148c-.652 0-1.21.232-1.675.697s-.696 1.022-.696 1.673c0 .652.232 1.21.697 1.675s1.022.697 1.673.696c.296 0 .583-.049.859-.148s.523-.247.741-.444c.099-.099.213-.183.341-.252s.272-.104.429-.103c.336 0 .618.114.845.341s.341.509.34.844v4.504c0 .336-.114.618-.341.845s-.509.341-.844.34H4.737c-.336 0-.617-.114-.844-.341s-.341-.509-.341-.844v-4.504z"/></symbol><symbol id="icon-delivery" viewBox="0 0 32 32"><path d="M4 5.333A2.668 2.668 0 0 0 1.333 8v14.667H4a4.003 4.003 0 0 0 4 4 4.003 4.003 0 0 0 4-4h8a4.003 4.003 0 0 0 4 4 4.003 4.003 0 0 0 4-4h2.667V16l-4-5.333h-4V5.334zM13.333 8l5.333 5.333-5.333 5.333v-4h-8v-2.667h8zm9.334 4.667H26L28.627 16h-5.96zM8 20.667a2 2 0 1 1-.001 4.001A2 2 0 0 1 8 20.667zm16 0a2 2 0 1 1-.001 4.001A2 2 0 0 1 24 20.667z"/></symbol></defs></svg>