<svg width="40" height="40" viewBox="0 0 40 40" fill="none" xmlns="http://www.w3.org/2000/svg">
<path d="M34.6055 20.8477C35.2617 19.9805 35.625 18.918 35.625 17.8125C35.625 16.0586 34.6445 14.3985 33.0664 13.4727C32.6601 13.2344 32.1976 13.109 31.7266 13.1094H22.3594L22.5938 8.30862C22.6484 7.14847 22.2383 6.0469 21.4414 5.20706C21.0503 4.79311 20.5785 4.46375 20.0551 4.23935C19.5318 4.01494 18.9679 3.90025 18.3984 3.90237C16.3672 3.90237 14.5703 5.26956 14.0312 7.22659L10.6758 19.375H10.6641V36.0938H29.1133C29.4727 36.0938 29.8242 36.0235 30.1484 35.8828C32.0078 35.0899 33.207 33.2735 33.207 31.2578C33.207 30.7657 33.1367 30.2813 32.9961 29.8125C33.6523 28.9453 34.0156 27.8828 34.0156 26.7774C34.0156 26.2852 33.9453 25.8008 33.8047 25.3321C34.4609 24.4649 34.8242 23.4024 34.8242 22.2969C34.8164 21.8047 34.7461 21.3164 34.6055 20.8477ZM4.375 20.625V34.8438C4.375 35.5352 4.93359 36.0938 5.625 36.0938H8.16406V19.375H5.625C4.93359 19.375 4.375 19.9336 4.375 20.625Z" fill="#0F1019"/>
</svg>
