<svg width="40" height="40" viewBox="0 0 40 40" fill="none" xmlns="http://www.w3.org/2000/svg">
<path d="M12.9166 4.16675C12.9166 3.83523 12.7849 3.51729 12.5505 3.28286C12.3161 3.04844 11.9982 2.91675 11.6666 2.91675C11.3351 2.91675 11.0172 3.04844 10.7827 3.28286C10.5483 3.51729 10.4166 3.83523 10.4166 4.16675V6.80008C8.01663 6.99175 6.4433 7.46175 5.28663 8.62008C4.1283 9.77675 3.6583 11.3517 3.46497 13.7501H36.535C36.3416 11.3501 35.8716 9.77675 34.7133 8.62008C33.5566 7.46175 31.9816 6.99175 29.5833 6.79841V4.16675C29.5833 3.83523 29.4516 3.51729 29.2172 3.28286C28.9828 3.04844 28.6648 2.91675 28.3333 2.91675C28.0018 2.91675 27.6838 3.04844 27.4494 3.28286C27.215 3.51729 27.0833 3.83523 27.0833 4.16675V6.68841C25.975 6.66675 24.7316 6.66675 23.3333 6.66675H16.6666C15.2683 6.66675 14.025 6.66675 12.9166 6.68841V4.16675Z" fill="#0F1019"/>
<path fill-rule="evenodd" clip-rule="evenodd" d="M3.33337 20C3.33337 18.6017 3.33337 17.3583 3.35504 16.25H36.645C36.6667 17.3583 36.6667 18.6017 36.6667 20V23.3333C36.6667 29.6183 36.6667 32.7617 34.7134 34.7133C32.7617 36.6667 29.6184 36.6667 23.3334 36.6667H16.6667C10.3817 36.6667 7.23837 36.6667 5.28671 34.7133C3.33337 32.7617 3.33337 29.6183 3.33337 23.3333V20ZM28.3334 23.3333C28.7754 23.3333 29.1993 23.1577 29.5119 22.8452C29.8244 22.5326 30 22.1087 30 21.6667C30 21.2246 29.8244 20.8007 29.5119 20.4882C29.1993 20.1756 28.7754 20 28.3334 20C27.8913 20 27.4674 20.1756 27.1549 20.4882C26.8423 20.8007 26.6667 21.2246 26.6667 21.6667C26.6667 22.1087 26.8423 22.5326 27.1549 22.8452C27.4674 23.1577 27.8913 23.3333 28.3334 23.3333ZM28.3334 30C28.7754 30 29.1993 29.8244 29.5119 29.5118C29.8244 29.1993 30 28.7754 30 28.3333C30 27.8913 29.8244 27.4674 29.5119 27.1548C29.1993 26.8423 28.7754 26.6667 28.3334 26.6667C27.8913 26.6667 27.4674 26.8423 27.1549 27.1548C26.8423 27.4674 26.6667 27.8913 26.6667 28.3333C26.6667 28.7754 26.8423 29.1993 27.1549 29.5118C27.4674 29.8244 27.8913 30 28.3334 30ZM21.6667 21.6667C21.6667 22.1087 21.4911 22.5326 21.1786 22.8452C20.866 23.1577 20.4421 23.3333 20 23.3333C19.558 23.3333 19.1341 23.1577 18.8215 22.8452C18.509 22.5326 18.3334 22.1087 18.3334 21.6667C18.3334 21.2246 18.509 20.8007 18.8215 20.4882C19.1341 20.1756 19.558 20 20 20C20.4421 20 20.866 20.1756 21.1786 20.4882C21.4911 20.8007 21.6667 21.2246 21.6667 21.6667ZM21.6667 28.3333C21.6667 28.7754 21.4911 29.1993 21.1786 29.5118C20.866 29.8244 20.4421 30 20 30C19.558 30 19.1341 29.8244 18.8215 29.5118C18.509 29.1993 18.3334 28.7754 18.3334 28.3333C18.3334 27.8913 18.509 27.4674 18.8215 27.1548C19.1341 26.8423 19.558 26.6667 20 26.6667C20.4421 26.6667 20.866 26.8423 21.1786 27.1548C21.4911 27.4674 21.6667 27.8913 21.6667 28.3333ZM11.6667 23.3333C12.1087 23.3333 12.5327 23.1577 12.8452 22.8452C13.1578 22.5326 13.3334 22.1087 13.3334 21.6667C13.3334 21.2246 13.1578 20.8007 12.8452 20.4882C12.5327 20.1756 12.1087 20 11.6667 20C11.2247 20 10.8008 20.1756 10.4882 20.4882C10.1756 20.8007 10 21.2246 10 21.6667C10 22.1087 10.1756 22.5326 10.4882 22.8452C10.8008 23.1577 11.2247 23.3333 11.6667 23.3333ZM11.6667 30C12.1087 30 12.5327 29.8244 12.8452 29.5118C13.1578 29.1993 13.3334 28.7754 13.3334 28.3333C13.3334 27.8913 13.1578 27.4674 12.8452 27.1548C12.5327 26.8423 12.1087 26.6667 11.6667 26.6667C11.2247 26.6667 10.8008 26.8423 10.4882 27.1548C10.1756 27.4674 10 27.8913 10 28.3333C10 28.7754 10.1756 29.1993 10.4882 29.5118C10.8008 29.8244 11.2247 30 11.6667 30Z" fill="#0F1019"/>
</svg>
