<svg width="40" height="40" viewBox="0 0 40 40" fill="none" xmlns="http://www.w3.org/2000/svg">
<path d="M4.99996 6.66675C4.1159 6.66675 3.26806 7.01794 2.64294 7.64306C2.01782 8.26818 1.66663 9.11603 1.66663 10.0001V28.3334H4.99996C4.99996 29.6595 5.52674 30.9313 6.46443 31.8689C7.40211 32.8066 8.67388 33.3334 9.99996 33.3334C11.326 33.3334 12.5978 32.8066 13.5355 31.8689C14.4732 30.9313 15 29.6595 15 28.3334H25C25 29.6595 25.5267 30.9313 26.4644 31.8689C27.4021 32.8066 28.6739 33.3334 30 33.3334C31.326 33.3334 32.5978 32.8066 33.5355 31.8689C34.4732 30.9313 35 29.6595 35 28.3334H38.3333V20.0001L33.3333 13.3334H28.3333V6.66675M16.6666 10.0001L23.3333 16.6667L16.6666 23.3334V18.3334H6.66663V15.0001H16.6666M28.3333 15.8334H32.5L35.7833 20.0001H28.3333M9.99996 25.8334C10.663 25.8334 11.2989 26.0968 11.7677 26.5656C12.2366 27.0345 12.5 27.6704 12.5 28.3334C12.5 28.9965 12.2366 29.6323 11.7677 30.1012C11.2989 30.57 10.663 30.8334 9.99996 30.8334C9.33692 30.8334 8.70103 30.57 8.23219 30.1012C7.76335 29.6323 7.49996 28.9965 7.49996 28.3334C7.49996 27.6704 7.76335 27.0345 8.23219 26.5656C8.70103 26.0968 9.33692 25.8334 9.99996 25.8334ZM30 25.8334C30.663 25.8334 31.2989 26.0968 31.7677 26.5656C32.2366 27.0345 32.5 27.6704 32.5 28.3334C32.5 28.9965 32.2366 29.6323 31.7677 30.1012C31.2989 30.57 30.663 30.8334 30 30.8334C29.3369 30.8334 28.701 30.57 28.2322 30.1012C27.7634 29.6323 27.5 28.9965 27.5 28.3334C27.5 27.6704 27.7634 27.0345 28.2322 26.5656C28.701 26.0968 29.3369 25.8334 30 25.8334Z" fill="#0F1019"/>
</svg>
