<svg width="40" height="40" viewBox="0 0 40 40" fill="none" xmlns="http://www.w3.org/2000/svg">
<path d="M27.4907 5.98315C24.2661 5.98315 21.5108 8.28162 19.9969 9.86623C18.4831 8.28162 15.7338 5.98315 12.5108 5.98315C6.95537 5.98315 3.0769 9.85546 3.0769 15.3985C3.0769 21.5062 7.89383 25.4539 12.5538 29.2724C14.7538 31.077 17.0308 32.9416 18.7769 35.0093C19.0708 35.3555 19.5015 35.5555 19.9538 35.5555H20.0431C20.4969 35.5555 20.9261 35.3539 21.2184 35.0093C22.9677 32.9416 25.2431 31.0755 27.4446 29.2724C32.1031 25.4555 36.9231 21.5078 36.9231 15.3985C36.9231 9.85546 33.0446 5.98315 27.4907 5.98315Z" fill="#0F1019"/>
</svg>
