<svg width="40" height="40" viewBox="0 0 40 40" fill="none" xmlns="http://www.w3.org/2000/svg">
<path fill-rule="evenodd" clip-rule="evenodd" d="M30.275 4.60825L30.7 4.66158C31.8233 4.81658 33.31 5.02491 34.1516 5.86825C34.8416 6.55658 35.1066 7.67658 35.265 8.67658L35.3583 9.31991C35.5683 10.8366 35.6233 12.8232 35.265 15.0299C34.5583 19.3849 32.24 24.5816 26.4183 28.6049C26.3866 28.9182 26.385 29.2349 26.3916 29.5516L26.4083 30.0249C26.435 30.7532 26.4616 31.4816 26.2583 32.1882C25.9416 33.2882 24.8133 34.0132 23.7583 34.5332L23.2416 34.7782L22.575 35.0716C21.3283 35.6016 19.645 36.1449 18.59 35.0882C17.9566 34.4566 17.6966 33.5299 17.485 32.6082L17.4066 32.2632C17.3184 31.8277 17.2071 31.3971 17.0733 30.9732C16.99 30.7299 16.9 30.4816 16.8033 30.2316C16.6969 30.3622 16.584 30.4874 16.465 30.6066C15.89 31.1816 15.0316 31.5832 14.325 31.8649C13.5533 32.1699 12.68 32.4366 11.8716 32.6566L11.4566 32.7666L10.6616 32.9649L9.94163 33.1316L9.07996 33.3149L8.54163 33.4199C8.27314 33.4696 7.99659 33.4533 7.73584 33.3723C7.47508 33.2913 7.23794 33.1481 7.04486 32.955C6.85179 32.7619 6.70858 32.5248 6.62759 32.264C6.54659 32.0033 6.53025 31.7267 6.57996 31.4583L6.72329 30.7399L6.97996 29.5766L7.18662 28.7266L7.34329 28.1266C7.56329 27.3199 7.82996 26.4466 8.13663 25.6766C8.41663 24.9683 8.81829 24.1099 9.39329 23.5349L9.52663 23.4066L9.41996 23.3632C9.13512 23.2549 8.84661 23.1566 8.55496 23.0682L8.09329 22.9266C6.93663 22.5766 5.69996 22.1999 4.93162 21.4299C3.99829 20.4982 4.31329 19.0799 4.76329 17.8999L4.94662 17.4432L5.24162 16.7766L5.48662 16.2599C6.00662 15.2066 6.73162 14.0782 7.83162 13.7616C8.41496 13.5949 9.02162 13.5849 9.63162 13.6016L9.99829 13.6132C10.475 13.6299 10.95 13.6482 11.415 13.6032C15.4383 7.77991 20.635 5.46158 24.99 4.75491C26.737 4.46837 28.5147 4.41904 30.275 4.60825ZM13.9216 25.7332C13.6593 25.5391 13.3458 25.4261 13.02 25.4084C12.6941 25.3906 12.3702 25.4688 12.0883 25.6332L11.905 25.7566L11.75 25.8949L11.5416 26.1582C11.1083 26.7849 10.8616 27.6516 10.67 28.4616L10.49 29.2416L10.405 29.5966L10.7233 29.5199L11.42 29.3599C12.3833 29.1349 13.4516 28.8433 14.1083 28.2516C14.3938 27.9662 14.5661 27.5869 14.593 27.1841C14.62 26.7814 14.4999 26.3825 14.255 26.0616L14.1183 25.9049L14.0783 25.8666L13.9216 25.7332ZM25.8933 14.1099C25.5838 13.8003 25.2164 13.5547 24.812 13.3871C24.4076 13.2195 23.9741 13.1332 23.5364 13.1332C23.0986 13.1331 22.6651 13.2192 22.2607 13.3867C21.8562 13.5541 21.4887 13.7996 21.1791 14.1091C20.8695 14.4186 20.6239 14.786 20.4563 15.1904C20.2887 15.5948 20.2024 16.0282 20.2024 16.466C20.2023 16.9037 20.2884 17.3372 20.4559 17.7417C20.6233 18.1461 20.8688 18.5137 21.1783 18.8232C21.8033 19.4485 22.6511 19.7998 23.5352 19.8C24.4193 19.8002 25.2672 19.4491 25.8925 18.8241C26.5177 18.1991 26.8691 17.3512 26.8692 16.4672C26.8694 15.5831 26.5183 14.7352 25.8933 14.1099Z" fill="#0F1019"/>
</svg>
