<svg aria-hidden="true" style="position: absolute; width: 0; height: 0; overflow: hidden;" version="1.1" xmlns="http://www.w3.org/2000/svg" xmlns:xlink="http://www.w3.org/1999/xlink">
<defs>
<symbol id="icon-logo" viewBox="0 0 108 32">
<path fill="#fafafa" style="fill: var(--color1, #fafafa)" d="M96.589 10.105c0.288 0.246 0.567 0.499 0.842 0.758 0.062 0.056 0.124 0.114 0.188 0.172 2.096 1.984 3.308 4.886 3.433 7.744 0.060 2.549-0.571 4.89-2.021 6.989-0.051 0.075-0.1 0.151-0.152 0.228-1.845 2.623-4.705 4.355-7.848 4.909-0.685 0.096-1.363 0.104-2.053 0.105-0.064 0-0.128 0-0.194 0-0.958-0.001-1.873-0.041-2.806-0.274-0.085-0.019-0.085-0.019-0.171-0.040-2.951-0.696-5.781-2.712-7.408-5.266-1.004-1.64-1.671-3.544-1.768-5.474-0.007-0.125-0.007-0.125-0.013-0.251-0.061-2.248 0.589-4.581 1.782-6.486 0.030-0.050 0.061-0.099 0.093-0.15 1.749-2.776 4.476-4.656 7.655-5.408 0.061-0.014 0.124-0.029 0.188-0.045 3.448-0.781 7.547 0.21 10.254 2.487zM85.305 11.368c-0.052 0.023-0.104 0.045-0.157 0.068-0.753 0.336-1.396 0.759-2.033 1.279-0.066 0.051-0.131 0.104-0.199 0.157-0.851 0.706-1.514 1.631-1.991 2.622-0.036 0.070-0.072 0.141-0.109 0.213-0.23 0.47-0.395 0.95-0.544 1.45-0.018 0.060-0.035 0.12-0.054 0.181-0.519 1.816-0.268 3.792 0.538 5.482 0.035 0.082 0.071 0.163 0.107 0.248 0.328 0.725 0.792 1.277 1.325 1.858 0.060 0.067 0.12 0.136 0.181 0.205 1.372 1.475 3.551 2.573 5.571 2.672 2.883 0.035 5.081-0.483 7.257-2.492 1.693-1.736 2.524-3.888 2.498-6.305-0.099-2.472-1.196-4.492-2.959-6.2-0.164-0.148-0.333-0.289-0.506-0.427-0.058-0.047-0.116-0.094-0.176-0.143-2.484-1.886-5.956-2.088-8.75-0.867z"></path>
<path fill="#fafafa" style="fill: var(--color1, #fafafa)" d="M60.3 7.779c0.098-0.002 0.098-0.002 0.198-0.003 0.071 0.001 0.141 0.002 0.214 0.003 0.075-0.001 0.151-0.001 0.228-0.002 0.248-0.001 0.498 0.001 0.746 0.003 0.175 0 0.349 0 0.524 0 0.367 0 0.733 0.002 1.101 0.004 0.465 0.003 0.93 0.003 1.395 0.003 0.361-0.001 0.723 0.001 1.084 0.002 0.171 0.001 0.342 0.001 0.513 0.001 2.33 0.002 5.027 0.234 6.78 1.96 0.060 0.061 0.12 0.122 0.181 0.184 0.056 0.050 0.113 0.099 0.171 0.151 0.792 0.715 1.405 1.8 1.766 2.797 0.033 0.090 0.066 0.18 0.1 0.274 0.568 1.859 0.377 3.945-0.51 5.661-0.242 0.446-0.51 0.846-0.853 1.223-0.058 0.067-0.116 0.134-0.176 0.203-0.992 1.071-2.33 1.81-3.782 1.987-0.31 0.011-0.31 0.011-0.505 0 0.395 0.63 0.851 1.205 1.313 1.786 0.184 0.233 0.365 0.468 0.546 0.703 0.034 0.045 0.068 0.090 0.104 0.136 0.070 0.090 0.139 0.18 0.208 0.27 0.174 0.228 0.349 0.456 0.525 0.683 0.071 0.091 0.141 0.183 0.211 0.274 0.052 0.068 0.052 0.068 0.105 0.137 0.105 0.136 0.211 0.274 0.316 0.41 0.035 0.045 0.070 0.090 0.105 0.137 0.071 0.091 0.141 0.183 0.211 0.274 0.207 0.269 0.414 0.539 0.622 0.808 0.104 0.134 0.207 0.269 0.31 0.403 0.165 0.216 0.333 0.43 0.503 0.644 0.093 0.12 0.187 0.239 0.28 0.36 0.045 0.056 0.090 0.111 0.136 0.169 0.199 0.258 0.308 0.418 0.361 0.744-0.052 0.268-0.073 0.328-0.297 0.481-0.243 0.025-0.467 0.035-0.71 0.034-0.069 0-0.139 0.001-0.211 0.001-0.147 0-0.295 0-0.442-0.002-0.225-0.001-0.45 0-0.675 0.002-0.143 0-0.286 0-0.429-0.001-0.067 0.001-0.134 0.001-0.203 0.002-0.387-0.005-0.634-0.042-0.951-0.288-0.159-0.184-0.159-0.184-0.321-0.41-0.066-0.091-0.132-0.182-0.198-0.273-0.037-0.051-0.074-0.103-0.113-0.156-0.253-0.343-0.514-0.68-0.773-1.019-0.439-0.575-0.873-1.153-1.3-1.737-0.429-0.584-0.868-1.16-1.316-1.73-0.403-0.515-0.792-1.042-1.177-1.57-0.349-0.476-0.707-0.942-1.069-1.406-1.176-1.502-1.176-1.502-1.227-1.89 0.191-0.39 0.191-0.39 0.421-0.505 0.115-0.011 0.231-0.017 0.347-0.021 0.072-0.002 0.144-0.005 0.218-0.007 0.117-0.003 0.117-0.003 0.237-0.008 0.166-0.006 0.333-0.013 0.499-0.019 0.262-0.009 0.523-0.019 0.785-0.027 1.856-0.061 3.461-0.184 4.82-1.603 0.757-0.822 0.972-1.852 0.95-2.943-0.060-1.226-0.688-2.328-1.579-3.15-1.242-0.989-3.072-0.996-4.583-0.989-0.135 0.001-0.135 0.001-0.273 0.001-0.284 0-0.568 0.002-0.852 0.003-0.194 0-0.388 0.001-0.582 0.001-0.473 0.001-0.946 0.003-1.418 0.004 0.001 0.099 0.001 0.199 0.001 0.301 0.008 2.361 0.013 4.723 0.017 7.084 0 0.291 0.001 0.581 0.001 0.871 0 0.058 0.001 0.115 0.001 0.175 0.001 0.937 0.004 1.874 0.007 2.811 0.003 0.961 0.005 1.922 0.006 2.883 0.001 0.54 0.002 1.079 0.004 1.619 0.002 0.508 0.003 1.016 0.003 1.524 0 0.186 0.001 0.373 0.002 0.56 0.002 0.254 0.002 0.509 0 0.763 0.002 0.074 0.003 0.149 0.003 0.226-0.005 0.496-0.005 0.496-0.197 0.764-0.266 0.178-0.475 0.167-0.794 0.167-0.058 0.001-0.117 0.001-0.177 0.001-0.124 0.001-0.247 0-0.371-0.002-0.189-0.002-0.377 0-0.566 0.003-0.12 0-0.24-0.001-0.36-0.002-0.109 0-0.217-0.001-0.33-0.001-0.28-0.044-0.28-0.044-0.463-0.16-0.241-0.346-0.2-0.684-0.197-1.096-0.001-0.090-0.002-0.18-0.002-0.273-0.002-0.303-0.001-0.606 0-0.909-0.001-0.217-0.002-0.434-0.003-0.651-0.002-0.528-0.002-1.056-0.001-1.584 0.001-0.429 0.001-0.859 0-1.288 0-0.061 0-0.122 0-0.184-0.001-0.125-0.001-0.248-0.001-0.372-0.002-1.164-0.001-2.328 0.001-3.491 0.001-1.064 0-2.13-0.003-3.194-0.003-1.093-0.003-2.186-0.003-3.279 0-0.124 0-0.247 0-0.371 0-0.061 0-0.121 0-0.184 0.001-0.429 0-0.857-0.002-1.286-0.002-0.577-0.001-1.155 0.001-1.731 0.001-0.212 0.001-0.424-0.001-0.636-0.001-0.29 0-0.579 0.003-0.867-0.002-0.084-0.003-0.168-0.003-0.255 0.005-0.388 0.013-0.573 0.248-0.893 0.22-0.152 0.31-0.211 0.571-0.211z"></path>
<path fill="#fafafa" style="fill: var(--color1, #fafafa)" d="M44.453 7.819c0.158-0.001 0.158-0.001 0.319-0.003 0.118 0 0.235 0 0.353-0.001 0.123-0.001 0.247-0.002 0.37-0.002 0.405-0.003 0.81-0.004 1.216-0.005 0.139 0 0.279-0.001 0.418-0.002 0.579-0.002 1.159-0.003 1.738-0.004 0.832-0.001 1.663-0.004 2.494-0.008 0.584-0.003 1.168-0.005 1.752-0.006 0.349 0 0.698-0.001 1.047-0.004 0.328-0.003 0.657-0.003 0.985-0.002 0.12 0 0.241-0.001 0.361-0.003 0.165-0.002 0.329-0.001 0.493 0.001 0.092-0.001 0.184-0.001 0.279-0.001 0.227 0.051 0.227 0.051 0.382 0.249 0.193 0.445 0.14 0.931 0.139 1.408 0.003 0.108 0.005 0.216 0.008 0.326 0 0.104 0 0.207 0.001 0.313 0 0.094 0.001 0.189 0.002 0.286-0.052 0.248-0.052 0.248-0.211 0.429-0.381 0.226-0.714 0.199-1.15 0.192-0.089 0-0.179 0-0.27 0-0.296-0.001-0.59-0.003-0.885-0.007-0.205-0.001-0.409-0.002-0.614-0.002-0.539-0.003-1.078-0.006-1.617-0.010-0.864-0.007-1.727-0.009-2.59-0.013-0.302-0.001-0.605-0.003-0.907-0.006-0.184-0.001-0.369-0.002-0.552-0.003-0.085-0.001-0.169-0.002-0.257-0.003-0.077 0-0.153 0-0.233-0.001-0.067-0.001-0.134-0.001-0.203-0.002-0.17-0.001-0.17-0.001-0.332 0.093-0.002 0.812-0.003 1.623-0.004 2.434 0 0.376-0.001 0.753-0.002 1.129-0.001 0.363-0.002 0.727-0.002 1.090 0 0.139-0.001 0.277-0.001 0.416-0.001 0.194-0.001 0.388-0.001 0.582 0 0.11 0 0.221-0.001 0.334-0.018 0.237-0.018 0.237 0.094 0.331 0.133 0.009 0.267 0.012 0.4 0.013 0.085 0 0.17 0.001 0.259 0.002 0.139 0 0.139 0 0.281 0.001 0.195 0.002 0.389 0.004 0.583 0.006 0.308 0.003 0.616 0.006 0.924 0.007 0.296 0.002 0.592 0.005 0.888 0.008 0.093 0 0.184 0 0.28-0.001 0.129 0.003 0.129 0.003 0.26 0.004 0.075 0.001 0.151 0.002 0.228 0.002 0.193 0.043 0.193 0.043 0.344 0.199 0.142 0.253 0.135 0.451 0.135 0.739 0.001 0.108 0.001 0.216 0.001 0.328 0 0.056-0.001 0.112-0.002 0.169-0.001 0.171 0 0.342 0.002 0.514 0 0.108 0 0.216-0.001 0.327 0 0.099-0.001 0.198-0.001 0.299-0.033 0.248-0.033 0.248-0.134 0.387-0.202 0.151-0.331 0.147-0.582 0.15-0.089 0.002-0.178 0.003-0.269 0.005-0.093 0-0.186 0.001-0.282 0.002-0.086 0.001-0.172 0.003-0.26 0.004-0.321 0.004-0.642 0.008-0.963 0.010-0.717 0.008-1.435 0.018-2.174 0.026 0 2.279 0 4.557 0 6.905 0.761 0.014 1.522 0.028 2.306 0.042 0.376 0.008 0.376 0.008 0.759 0.014 1.113 0.019 2.223 0.031 3.336 0.019 0.098-0.001 0.195-0.002 0.296-0.003 0.459-0.004 0.918-0.011 1.378-0.020 0.163-0.003 0.328-0.004 0.492-0.006 0.074-0.003 0.147-0.005 0.223-0.008 0.357-0.002 0.515 0.015 0.815 0.225 0.195 0.288 0.217 0.441 0.215 0.787-0.001 0.104-0.001 0.206-0.001 0.313-0.003 0.108-0.005 0.215-0.008 0.326 0.001 0.108 0.001 0.216 0.001 0.326-0.008 0.772-0.008 0.772-0.126 1.028-0.262 0.242-0.548 0.205-0.887 0.204-0.074 0.001-0.147 0.002-0.224 0.003-0.246 0.003-0.491 0.003-0.737 0.004-0.173 0.002-0.347 0.003-0.52 0.005-0.463 0.004-0.926 0.006-1.389 0.008-0.38 0.002-0.76 0.004-1.14 0.007-2.055 0.014-4.111 0.022-6.167-0.011-0.087-0.001-0.173-0.002-0.263-0.003-0.236-0.003-0.471-0.008-0.708-0.014-0.066-0.001-0.131-0.002-0.2-0.003-0.357-0.012-0.561-0.046-0.819-0.296-0.042-0.171-0.042-0.171-0.043-0.371-0.002-0.076-0.003-0.152-0.003-0.232 0-0.083 0.001-0.167 0.001-0.254-0.001-0.089-0.002-0.179-0.003-0.27-0.002-0.301-0.002-0.601-0.002-0.901-0.001-0.215-0.003-0.429-0.004-0.644-0.003-0.525-0.004-1.048-0.005-1.572-0.001-0.61-0.003-1.219-0.006-1.83-0.005-1.089-0.008-2.177-0.010-3.266-0.003-1.056-0.006-2.113-0.011-3.169-0.005-1.15-0.009-2.3-0.013-3.449-0.001-0.123-0.001-0.245-0.002-0.368 0-0.061 0-0.121 0-0.183-0.002-0.425-0.003-0.851-0.005-1.276-0.003-0.573-0.004-1.145-0.004-1.717-0.001-0.211-0.002-0.421-0.003-0.631-0.002-0.287-0.002-0.574-0.002-0.861-0.001-0.083-0.002-0.167-0.003-0.253 0.003-0.477 0.052-0.818 0.285-1.238 0.228-0.114 0.408-0.095 0.664-0.097z"></path>
<path fill="#fafafa" style="fill: var(--color1, #fafafa)" d="M95.747 0.674c0.098 0.021 0.098 0.021 0.198 0.042 2.398 0.531 4.717 1.638 6.52 3.32 0.173 0.161 0.349 0.313 0.53 0.465 2.611 2.297 4.039 5.818 4.29 9.226 0.082 1.567-0.013 3.134-0.505 4.631-0.084 0.084-0.084 0.084-0.363 0.105-0.321-0.022-0.429-0.046-0.647-0.274-0.087-0.259-0.106-0.495-0.125-0.766-0.23-2.975-1.362-5.714-3.159-8.076-0.061-0.080-0.121-0.161-0.184-0.243-0.6-0.769-1.249-1.496-2.006-2.115-0.044-0.036-0.087-0.073-0.132-0.111-2.935-2.467-6.675-3.779-10.499-3.784-0.059 0-0.118 0-0.179-0.001-1.164 0-2.318 0.076-3.449 0.365-0.368 0.093-0.607 0.121-0.983 0.078-0.253-0.211-0.253-0.211-0.421-0.421 0.179-0.456 0.415-0.652 0.837-0.874 0.059-0.031 0.118-0.063 0.179-0.096 3.064-1.612 6.7-2.219 10.1-1.472z"></path>
<path fill="#fafafa" style="fill: var(--color1, #fafafa)" d="M26.801 7.788c0.026-0 0.052-0.001 0.104-0.002 0.054 0 0.081 0.001 0.109 0.001s0.056 0.001 0.114 0.002l0.236-0.002c0.257-0.001 0.514 0.001 0.772 0.003h0.002c0.18-0.001 0.361-0.001 0.541-0.001 0.379 0 0.759 0.001 1.139 0.003 0.482 0.003 0.963 0.003 1.444 0.002 0.374-0.001 0.748 0 1.122 0.001 0.177 0.001 0.355 0.001 0.531 0 2.272-0.003 4.633 0.235 6.412 1.805 0.048 0.042 0.096 0.084 0.145 0.126 0.020 0.017 0.040 0.034 0.060 0.052 1.299 1.206 2.094 2.925 2.178 4.693 0.054 1.989-0.469 3.743-1.843 5.217-2.237 2.131-4.978 2.238-7.915 2.219-0.29-0.002-0.579-0.003-0.869-0.003-0.564-0.002-1.128-0.005-1.693-0.008 0 0.053-0 0.105-0 0.158s-0.001 0.108-0.001 0.163c-0.005 0.997-0.011 1.995-0.019 2.992-0.004 0.513-0.007 1.026-0.009 1.538-0.003 0.495-0.006 0.99-0.010 1.485-0.002 0.189-0.003 0.377-0.003 0.567-0.001 0.263-0.003 0.525-0.006 0.789v0.242c-0 0.035-0.001 0.070-0.002 0.105-0.001 0.037-0.001 0.075-0.002 0.113-0.001 0.093-0.001 0.093-0.001 0.189v0c-0.042 0.213-0.114 0.288-0.285 0.417-0.122 0.015-0.189 0.023-0.256 0.027-0.082 0.006-0.164 0.006-0.346 0.006-0.029 0-0.058 0-0.088 0s-0.060 0-0.090 0c-0.123 0-0.246-0.001-0.37-0.002l-0.003-0c-0.189-0.001-0.378 0-0.567 0.002-0.121 0-0.241 0-0.361-0.001-0.054 0-0.109-0-0.163-0s-0.112-0.001-0.168-0.001c-0.305-0.035-0.403-0.077-0.619-0.285-0.020-0.081-0.030-0.124-0.036-0.168-0.006-0.050-0.006-0.101-0.006-0.209l-0.003-0.236 0.003-0.259c-0.001-0.090-0.002-0.181-0.002-0.275-0.002-0.306-0.001-0.611 0.001-0.917l-0.003-0.655c-0.001-0.533-0.001-1.066 0-1.599 0.001-0.433 0.001-0.866 0.001-1.298v-0.187c-0.001-0.125-0.001-0.25-0.001-0.375v-0c-0.001-1.174 0-2.348 0.003-3.521 0.001-1.007 0.001-2.015-0.001-3.022-0.002-1.169-0.003-2.339-0.002-3.507 0.001-0.125 0.001-0.249 0.001-0.374v-0.186c0-0.432 0-0.865-0.001-1.298-0.001-0.582-0.001-1.164 0.002-1.746 0-0.214 0-0.428-0.001-0.643-0.001-0.291 0.001-0.583 0.003-0.874v-0c-0.002-0.128-0.002-0.128-0.003-0.258 0.006-0.567 0.006-0.567 0.195-0.845 0.199-0.124 0.298-0.158 0.53-0.158 0.050-0 0.075-0.001 0.1-0.001zM30.149 10.838l-0.262 0.003c-0.543 0.003-0.601 0.164-0.604 0.698 0 0.037 0 0.073 0 0.109s0 0.070 0 0.105c0 0.079-0 0.158-0 0.238-0 0.159-0 0.317 0 0.476 0.001 0.17 0.002 0.34 0.002 0.51 0 0.355 0 0.708 0.001 1.062 0.002 0.461 0.003 0.924 0.003 1.385 0 0.36 0 0.719 0.001 1.079 0 0.171 0 0.343 0.001 0.514 0 0.248 0 0.495 0.001 0.743 0 0.039 0 0.076 0 0.114s0 0.074 0 0.111c0 0.238 0.003 0.473 0.013 0.71 0.034 0.034 0.054 0.054 0.079 0.067 0.036 0.019 0.080 0.021 0.188 0.028h0.246c0.071 0.001 0.106 0.001 0.141 0.001s0.069 0 0.136 0h0.936c0.111 0 0.222-0 0.333-0 0.222-0 0.444-0 0.666 0h0.963c1.507 0.003 3.098-0.032 4.262-1.133l0.134-0.141c0.674-0.705 0.936-1.481 0.952-2.449-0.001-1.229-0.32-2.217-1.205-3.11-1.332-1.127-3.2-1.128-4.851-1.124-0.312 0.003-0.624 0.004-0.937 0.004-0.137-0.001-0.275-0-0.413-0-0.069 0-0.138 0-0.207 0-0.1 0.001-0.198 0.001-0.295 0.001h-0.285z"></path>
<path fill="#fafafa" style="fill: var(--color1, #fafafa)" d="M13.578 7.759c0.757-0.037 0.989-0.048 1.172 0.041 0.081 0.039 0.153 0.099 0.256 0.184 0.141 0.224 0.23 0.441 0.32 0.69 0.080 0.175 0.161 0.35 0.242 0.525 0.085 0.198 0.169 0.397 0.253 0.595 0.047 0.111 0.094 0.222 0.142 0.333l0.303 0.71c0.229 0.538 0.461 1.074 0.694 1.61l0.248 0.574c0.36 0.833 0.722 1.665 1.083 2.498 0.149 0.343 0.297 0.685 0.446 1.027 0.72 1.658 1.439 3.317 2.156 4.977 0.254 0.589 0.509 1.177 0.764 1.766 0.029 0.066 0.057 0.132 0.085 0.198s0.057 0.132 0.085 0.198c0.059 0.136 0.117 0.272 0.176 0.407 0.253 0.584 0.506 1.169 0.759 1.753 0.157 0.361 0.312 0.722 0.468 1.083 0.16 0.368 0.32 0.736 0.483 1.103 0.096 0.217 0.191 0.434 0.286 0.652l0.001 0.002c0.067 0.152 0.134 0.303 0.202 0.455l0.121 0.277c0.008 0.018 0.016 0.035 0.023 0.053 0.028 0.063 0.055 0.126 0.084 0.189 0.085 0.265 0.107 0.462 0.075 0.739-0.042 0.075-0.063 0.114-0.093 0.145-0.032 0.033-0.073 0.057-0.159 0.108-0.219 0.027-0.417 0.039-0.636 0.039-0.031 0.001-0.063 0.001-0.094 0.001s-0.063 0-0.095 0.001c-0.131 0.001-0.263 0.002-0.395 0.001-0.2 0-0.401 0.003-0.601 0.008h-0.384c-0.060 0.002-0.12 0.003-0.181 0.004-0.303-0.004-0.462-0.043-0.709-0.223-0.229-0.305-0.371-0.605-0.515-0.957l-0.089-0.211c-0.096-0.227-0.191-0.456-0.285-0.684l-0.2-0.475c-0.103-0.243-0.205-0.486-0.307-0.729-0.35-0.835-0.711-1.666-1.072-2.496-0.112-0.257-0.223-0.514-0.334-0.771l-0.074-0.168c-0.095-0.221-0.184-0.438-0.26-0.666-2.331 0.021-3.509 0.031-4.686 0.042-1.201 0.011-2.403 0.021-4.83 0.042l-0.084 0.421c-0.040 0.109-0.083 0.216-0.13 0.322-0.020 0.045-0.030 0.068-0.040 0.091s-0.020 0.046-0.041 0.093c-0.015 0.034-0.030 0.068-0.046 0.103-0.014 0.031-0.028 0.062-0.042 0.093l-0.092 0.209c-0.099 0.225-0.2 0.45-0.3 0.674-0.040 0.092-0.081 0.184-0.121 0.275-0.028 0.064-0.056 0.127-0.084 0.19-0.104 0.237-0.209 0.473-0.314 0.71-0.221 0.5-0.441 1.001-0.66 1.503-0.008 0.017-0.015 0.034-0.023 0.052-0.019 0.045-0.039 0.090-0.060 0.136-0.102 0.235-0.204 0.469-0.307 0.704-0.068 0.158-0.137 0.317-0.207 0.476-0.024 0.057-0.049 0.114-0.075 0.171-0.014 0.032-0.028 0.063-0.042 0.095-0.321 0.711-0.321 0.711-0.534 0.924-0.212 0.019-0.415 0.028-0.628 0.029-0.061 0-0.121 0.001-0.184 0.002l-0.005 0c-0.132 0.001-0.264 0.001-0.396 0.001-0.201 0.001-0.403 0.003-0.604 0.007-0.128 0.001-0.257 0.001-0.385 0.001-0.060 0.002-0.12 0.003-0.182 0.003-0.408-0.003-0.611-0.094-0.901-0.379 0.051-0.454 0.205-0.82 0.392-1.231 0.016-0.037 0.033-0.075 0.050-0.112 0.015-0.034 0.030-0.067 0.045-0.102 0.068-0.153 0.136-0.305 0.204-0.457l0-0.001c0.147-0.326 0.292-0.652 0.437-0.979 0.027-0.060 0.053-0.119 0.080-0.179 0.049-0.108 0.097-0.217 0.145-0.325 0.356-0.799 0.707-1.601 1.056-2.403 0.059-0.136 0.118-0.271 0.177-0.406s0.117-0.27 0.176-0.405c0.059-0.135 0.117-0.27 0.176-0.405l0.002-0.005c0.295-0.677 0.59-1.354 0.885-2.031 0.014-0.032 0.027-0.063 0.041-0.095 0.016-0.036 0.031-0.072 0.047-0.109 0.469-1.075 0.94-2.149 1.411-3.223 0.476-1.083 0.95-2.166 1.419-3.251 0.253-0.586 0.508-1.171 0.763-1.757 0.018-0.041 0.035-0.081 0.053-0.122 0.013-0.029 0.026-0.058 0.038-0.088 0.154-0.354 0.308-0.707 0.463-1.059 0.281-0.644 0.561-1.289 0.83-1.939l0.139-0.333c0.085-0.204 0.169-0.408 0.252-0.611 0.014-0.034 0.029-0.069 0.043-0.103 0.023-0.055 0.046-0.11 0.069-0.166 0.017-0.042 0.035-0.084 0.052-0.126 0.015-0.035 0.029-0.071 0.044-0.107 0.263-0.446 0.854-0.429 1.363-0.415 0.106 0.003 0.208 0.006 0.303 0.004 0.133-0.003 0.266-0.008 0.399-0.013zM13.759 13.092c-0.122-0.301-0.248-0.546-0.454-0.797-0.036 0.036-0.057 0.057-0.074 0.080-0.022 0.031-0.039 0.066-0.076 0.148l-0.079 0.194c-0.018 0.043-0.036 0.086-0.053 0.128-0.013 0.033-0.027 0.065-0.040 0.098-0.019 0.047-0.039 0.094-0.058 0.14-0.052 0.126-0.104 0.253-0.157 0.379-0.015 0.036-0.030 0.072-0.045 0.108-0.025 0.061-0.050 0.121-0.075 0.181-0.25 0.603-0.502 1.206-0.755 1.808l-0.172 0.409c-0.31 0.739-0.62 1.476-0.941 2.209-0.028 0.062-0.055 0.124-0.081 0.184-0.028 0.064-0.056 0.129-0.085 0.193-0.097 0.221-0.194 0.442-0.293 0.663-0.013 0.030-0.027 0.059-0.040 0.088-0.011 0.024-0.021 0.047-0.032 0.071-0.009 0.021-0.018 0.042-0.028 0.063-0.034 0.078-0.068 0.155-0.102 0.231v0c-0.114 0.256-0.114 0.256-0.184 0.456l0.084 0.169h6.653c0-0.085 0-0.127-0.007-0.168s-0.022-0.080-0.050-0.157c-0.013-0.031-0.026-0.062-0.039-0.093-0.015-0.034-0.029-0.068-0.043-0.103-0.033-0.077-0.064-0.152-0.095-0.227l-0-0c-0.073-0.172-0.146-0.345-0.219-0.519l-0-0.001c-0.041-0.097-0.080-0.192-0.12-0.286-0.22-0.522-0.439-1.045-0.656-1.568-0.024-0.057-0.047-0.114-0.071-0.171l-0.243-0.581c-0.264-0.632-0.527-1.263-0.786-1.897-0.024-0.058-0.047-0.116-0.071-0.174s-0.048-0.116-0.071-0.174c-0.034-0.082-0.067-0.164-0.101-0.246s-0.067-0.164-0.101-0.246c-0.032-0.079-0.048-0.118-0.063-0.157s-0.031-0.077-0.061-0.153c-0.017-0.042-0.034-0.083-0.051-0.124-0.022-0.053-0.043-0.106-0.065-0.159z"></path>
</symbol>

<symbol id="icon-arrow-up-right" viewBox="0 0 32 32">
<path d="M16 0c8.837 0 16 7.163 16 16s-7.163 16-16 16c-8.837 0-16-7.163-16-16s7.163-16 16-16z"></path>
<path fill="none" stroke="#fafafa" style="stroke: var(--color1, #fafafa)" stroke-linejoin="round" stroke-linecap="round" stroke-miterlimit="4" stroke-width="1.6" d="M10.667 21.333l10.667-10.667"></path>
<path fill="none" stroke="#fafafa" style="stroke: var(--color1, #fafafa)" stroke-linejoin="round" stroke-linecap="round" stroke-miterlimit="4" stroke-width="1.6" d="M10.667 10.667h10.667v10.667"></path>
</symbol>

<symbol id="icon-like" viewBox="0 0 32 32">
<path d="M21.993 4.787c-2.58 0-4.784 1.839-5.995 3.106-1.211-1.268-3.41-3.106-5.989-3.106-4.444 0-7.547 3.098-7.547 7.532 0 4.886 3.854 8.044 7.582 11.099 1.76 1.444 3.582 2.935 4.978 4.59 0.235 0.277 0.58 0.437 0.942 0.437h0.071c0.363 0 0.706-0.161 0.94-0.437 1.399-1.654 3.22-3.147 4.981-4.59 3.727-3.054 7.583-6.212 7.583-11.099 0-4.434-3.103-7.532-7.546-7.532z"></path>
</symbol>

<symbol id="icon-rocket" viewBox="0 0 32 32">
<path d="M24.22 3.687l0.34 0.043c0.899 0.124 2.088 0.291 2.761 0.965 0.552 0.551 0.764 1.447 0.891 2.247l0.075 0.515c0.168 1.213 0.212 2.803-0.075 4.568-0.565 3.484-2.42 7.641-7.077 10.86-0.025 0.251-0.027 0.504-0.021 0.757l0.013 0.379c0.021 0.583 0.043 1.165-0.12 1.731-0.253 0.88-1.156 1.46-2 1.876l-0.413 0.196-0.533 0.235c-0.997 0.424-2.344 0.859-3.188 0.013-0.507-0.505-0.715-1.247-0.884-1.984l-0.063-0.276c-0.071-0.348-0.16-0.693-0.267-1.032-0.067-0.195-0.139-0.393-0.216-0.593-0.085 0.104-0.175 0.205-0.271 0.3-0.46 0.46-1.147 0.781-1.712 1.007-0.617 0.244-1.316 0.457-1.963 0.633l-0.332 0.088-0.636 0.159-0.576 0.133-0.689 0.147-0.431 0.084c-0.215 0.040-0.436 0.027-0.645-0.038s-0.398-0.179-0.553-0.334c-0.154-0.154-0.269-0.344-0.334-0.553s-0.078-0.43-0.038-0.645l0.115-0.575 0.205-0.931 0.165-0.68 0.125-0.48c0.176-0.645 0.389-1.344 0.635-1.96 0.224-0.567 0.545-1.253 1.005-1.713l0.107-0.103-0.085-0.035c-0.228-0.087-0.459-0.165-0.692-0.236l-0.369-0.113c-0.925-0.28-1.915-0.581-2.529-1.197-0.747-0.745-0.495-1.88-0.135-2.824l0.147-0.365 0.236-0.533 0.196-0.413c0.416-0.843 0.996-1.745 1.876-1.999 0.467-0.133 0.952-0.141 1.44-0.128l0.293 0.009c0.381 0.013 0.761 0.028 1.133-0.008 3.219-4.659 7.376-6.513 10.86-7.079 1.398-0.229 2.82-0.269 4.228-0.117zM11.137 20.587c-0.21-0.155-0.461-0.246-0.721-0.26s-0.52 0.048-0.745 0.18l-0.147 0.099-0.124 0.111-0.167 0.211c-0.347 0.501-0.544 1.195-0.697 1.843l-0.144 0.624-0.068 0.284 0.255-0.061 0.557-0.128c0.771-0.18 1.625-0.413 2.151-0.887 0.228-0.228 0.366-0.532 0.388-0.854s-0.074-0.641-0.27-0.898l-0.109-0.125-0.032-0.031-0.125-0.107zM20.715 11.288c-0.248-0.248-0.542-0.444-0.865-0.578s-0.67-0.203-1.020-0.203c-0.35-0-0.697 0.069-1.021 0.203s-0.618 0.33-0.865 0.578-0.444 0.542-0.578 0.865c-0.134 0.324-0.203 0.67-0.203 1.020s0.069 0.697 0.203 1.021c0.134 0.324 0.33 0.618 0.578 0.865 0.5 0.5 1.178 0.781 1.886 0.781s1.386-0.281 1.886-0.781c0.5-0.5 0.781-1.178 0.781-1.886s-0.281-1.386-0.781-1.886z"></path>
</symbol>

<symbol id="icon-calendar" viewBox="0 0 32 32">
<path d="M10.333 3.333c0-0.265-0.105-0.52-0.293-0.707s-0.442-0.293-0.707-0.293c-0.265 0-0.52 0.105-0.707 0.293s-0.293 0.442-0.293 0.707v2.107c-1.92 0.153-3.179 0.529-4.104 1.456-0.927 0.925-1.303 2.185-1.457 4.104h26.456c-0.155-1.92-0.531-3.179-1.457-4.104-0.925-0.927-2.185-1.303-4.104-1.457v-2.105c0-0.265-0.105-0.52-0.293-0.707s-0.442-0.293-0.707-0.293c-0.265 0-0.52 0.105-0.707 0.293s-0.293 0.442-0.293 0.707v2.017c-0.887-0.017-1.881-0.017-3-0.017h-5.333c-1.119 0-2.113 0-3 0.017v-2.017z"></path>
<path d="M2.667 16c0-1.119 0-2.113 0.017-3h26.632c0.017 0.887 0.017 1.881 0.017 3v2.667c0 5.028 0 7.543-1.563 9.104-1.561 1.563-4.076 1.563-9.104 1.563h-5.333c-5.028 0-7.543 0-9.104-1.563-1.563-1.561-1.563-4.076-1.563-9.104v-2.667zM22.667 18.667c0.354 0 0.693-0.14 0.943-0.39s0.39-0.589 0.39-0.943c0-0.354-0.14-0.693-0.39-0.943s-0.589-0.391-0.943-0.391c-0.354 0-0.693 0.14-0.943 0.391s-0.391 0.589-0.391 0.943c0 0.354 0.14 0.693 0.391 0.943s0.589 0.39 0.943 0.39zM22.667 24c0.354 0 0.693-0.14 0.943-0.391s0.39-0.589 0.39-0.943c0-0.354-0.14-0.693-0.39-0.943s-0.589-0.39-0.943-0.39c-0.354 0-0.693 0.14-0.943 0.39s-0.391 0.589-0.391 0.943c0 0.354 0.14 0.693 0.391 0.943s0.589 0.391 0.943 0.391zM17.333 17.333c0 0.354-0.14 0.693-0.39 0.943s-0.589 0.39-0.943 0.39c-0.354 0-0.693-0.14-0.943-0.39s-0.39-0.589-0.39-0.943c0-0.354 0.14-0.693 0.39-0.943s0.589-0.391 0.943-0.391c0.354 0 0.693 0.14 0.943 0.391s0.39 0.589 0.39 0.943zM17.333 22.667c0 0.354-0.14 0.693-0.39 0.943s-0.589 0.391-0.943 0.391c-0.354 0-0.693-0.14-0.943-0.391s-0.39-0.589-0.39-0.943c0-0.354 0.14-0.693 0.39-0.943s0.589-0.39 0.943-0.39c0.354 0 0.693 0.14 0.943 0.39s0.39 0.589 0.39 0.943zM9.333 18.667c0.354 0 0.693-0.14 0.943-0.39s0.391-0.589 0.391-0.943c0-0.354-0.14-0.693-0.391-0.943s-0.589-0.391-0.943-0.391-0.693 0.14-0.943 0.391c-0.25 0.25-0.391 0.589-0.391 0.943s0.14 0.693 0.391 0.943c0.25 0.25 0.589 0.39 0.943 0.39zM9.333 24c0.354 0 0.693-0.14 0.943-0.391s0.391-0.589 0.391-0.943c0-0.354-0.14-0.693-0.391-0.943s-0.589-0.39-0.943-0.39-0.693 0.14-0.943 0.39c-0.25 0.25-0.391 0.589-0.391 0.943s0.14 0.693 0.391 0.943c0.25 0.25 0.589 0.391 0.943 0.391z"></path>
</symbol>

<symbol id="icon-ant" viewBox="0 0 32 32">
<path d="M27.684 16.678c0.525-0.694 0.816-1.544 0.816-2.428 0-1.403-0.784-2.731-2.047-3.472-0.325-0.191-0.695-0.291-1.072-0.291h-7.494l0.188-3.841c0.044-0.928-0.284-1.809-0.922-2.481-0.313-0.331-0.69-0.595-1.109-0.774s-0.87-0.271-1.325-0.27c-1.625 0-3.062 1.094-3.494 2.659l-2.684 9.719h-0.009v13.375h14.759c0.288 0 0.569-0.056 0.828-0.169 1.488-0.634 2.447-2.087 2.447-3.7 0-0.394-0.056-0.781-0.169-1.156 0.525-0.694 0.816-1.544 0.816-2.428 0-0.394-0.056-0.781-0.169-1.156 0.525-0.694 0.816-1.544 0.816-2.428-0.006-0.394-0.062-0.784-0.175-1.159zM3.5 16.5v11.375c0 0.553 0.447 1 1 1h2.031v-13.375h-2.031c-0.553 0-1 0.447-1 1z"></path>
</symbol>

<symbol id="icon-toys-and-games" viewBox="0 0 28 32">
<path d="M3.556 20.385c0-0.316 0.104-0.583 0.312-0.8s0.459-0.326 0.755-0.326c0.158 0 0.311 0.025 0.46 0.075s0.292 0.124 0.429 0.222c0.257 0.158 0.514 0.296 0.77 0.415s0.533 0.178 0.83 0.178c0.652 0 1.21-0.232 1.675-0.696s0.696-1.022 0.696-1.675c0-0.652-0.232-1.21-0.696-1.673s-1.022-0.696-1.675-0.697c-0.296 0-0.583 0.049-0.859 0.148s-0.523 0.247-0.741 0.444c-0.119 0.099-0.257 0.173-0.415 0.223s-0.316 0.074-0.474 0.073c-0.296 0-0.548-0.109-0.755-0.326s-0.311-0.484-0.312-0.8v-4.504c0-0.336 0.114-0.617 0.341-0.844s0.509-0.341 0.844-0.341h4.444c-0.099-0.296-0.173-0.593-0.222-0.889s-0.074-0.593-0.075-0.889c0-1.481 0.519-2.741 1.556-3.777s2.297-1.555 3.777-1.556c1.481 0 2.741 0.519 3.778 1.556s1.556 2.296 1.555 3.777c0 0.296-0.024 0.593-0.073 0.889s-0.123 0.593-0.223 0.889h4.444c0.336 0 0.618 0.114 0.845 0.341s0.341 0.509 0.34 0.844v4.504c0 0.336-0.114 0.617-0.341 0.845s-0.509 0.341-0.844 0.34c-0.158 0-0.296-0.035-0.415-0.104s-0.237-0.153-0.356-0.251c-0.217-0.198-0.464-0.346-0.741-0.444s-0.563-0.148-0.859-0.148c-0.652 0-1.21 0.232-1.675 0.697s-0.696 1.022-0.696 1.673c0 0.652 0.232 1.21 0.697 1.675s1.022 0.697 1.673 0.696c0.296 0 0.583-0.049 0.859-0.148s0.523-0.247 0.741-0.444c0.099-0.099 0.213-0.183 0.341-0.252s0.272-0.104 0.429-0.103c0.336 0 0.618 0.114 0.845 0.341s0.341 0.509 0.34 0.844v4.504c0 0.336-0.114 0.618-0.341 0.845s-0.509 0.341-0.844 0.34h-18.963c-0.336 0-0.617-0.114-0.844-0.341s-0.341-0.509-0.341-0.844v-4.504z"></path>
</symbol>

<symbol id="icon-delivery" viewBox="0 0 32 32">
<path d="M4 5.333c-0.707 0-1.386 0.281-1.886 0.781s-0.781 1.178-0.781 1.886v14.667h2.667c0 1.061 0.421 2.078 1.172 2.828s1.768 1.172 2.828 1.172c1.061 0 2.078-0.421 2.828-1.172s1.172-1.768 1.172-2.828h8c0 1.061 0.421 2.078 1.172 2.828s1.768 1.172 2.828 1.172c1.061 0 2.078-0.421 2.828-1.172s1.172-1.768 1.172-2.828h2.667v-6.667l-4-5.333h-4v-5.333zM13.333 8l5.333 5.333-5.333 5.333v-4h-8v-2.667h8zM22.667 12.667h3.333l2.627 3.333h-5.96zM8 20.667c0.53 0 1.039 0.211 1.414 0.586s0.586 0.884 0.586 1.414c0 0.53-0.211 1.039-0.586 1.414s-0.884 0.586-1.414 0.586-1.039-0.211-1.414-0.586c-0.375-0.375-0.586-0.884-0.586-1.414s0.211-1.039 0.586-1.414c0.375-0.375 0.884-0.586 1.414-0.586zM24 20.667c0.53 0 1.039 0.211 1.414 0.586s0.586 0.884 0.586 1.414c0 0.53-0.211 1.039-0.586 1.414s-0.884 0.586-1.414 0.586c-0.53 0-1.039-0.211-1.414-0.586s-0.586-0.884-0.586-1.414c0-0.53 0.211-1.039 0.586-1.414s0.884-0.586 1.414-0.586z"></path>
</symbol>


</defs>

</svg>
