<svg width="40" height="45" viewBox="0 0 40 45" fill="none" xmlns="http://www.w3.org/2000/svg">
<g filter="url(#filter0_dd_583_463)">
<path d="M5 28.6666C5 28.2221 5.14611 27.8471 5.43833 27.5416C5.73056 27.236 6.08444 27.0833 6.5 27.0833C6.72222 27.0833 6.93778 27.1183 7.14667 27.1883C7.35556 27.2583 7.55667 27.3621 7.75 27.4999C8.11111 27.7221 8.47222 27.9166 8.83333 28.0833C9.19444 28.2499 9.58333 28.3333 10 28.3333C10.9167 28.3333 11.7017 28.0071 12.355 27.3549C13.0083 26.7027 13.3344 25.9177 13.3333 24.9999C13.3333 24.0833 13.0072 23.2988 12.355 22.6466C11.7028 21.9944 10.9178 21.6677 10 21.6666C9.58333 21.6666 9.18056 21.736 8.79167 21.8749C8.40278 22.0138 8.05556 22.2221 7.75 22.4999C7.58333 22.6388 7.38889 22.7433 7.16667 22.8133C6.94444 22.8833 6.72222 22.9177 6.5 22.9166C6.08333 22.9166 5.72944 22.7638 5.43833 22.4583C5.14722 22.1527 5.00111 21.7777 5 21.3333V14.9999C5 14.5277 5.16 14.1321 5.48 13.8133C5.8 13.4944 6.19556 13.3344 6.66667 13.3333H12.9167C12.7778 12.9166 12.6739 12.4999 12.605 12.0833C12.5361 11.6666 12.5011 11.2499 12.5 10.8333C12.5 8.74992 13.2294 6.97936 14.6883 5.52159C16.1472 4.06381 17.9178 3.33436 20 3.33325C22.0833 3.33325 23.8544 4.0627 25.3133 5.52159C26.7722 6.98047 27.5011 8.75103 27.5 10.8333C27.5 11.2499 27.4656 11.6666 27.3967 12.0833C27.3278 12.4999 27.2233 12.9166 27.0833 13.3333H33.3333C33.8056 13.3333 34.2017 13.4933 34.5217 13.8133C34.8417 14.1333 35.0011 14.5288 35 14.9999V21.3333C35 21.8055 34.84 22.2016 34.52 22.5216C34.2 22.8416 33.8044 23.001 33.3333 22.9999C33.1111 22.9999 32.9167 22.951 32.75 22.8533C32.5833 22.7555 32.4167 22.6377 32.25 22.4999C31.9444 22.2221 31.5972 22.0138 31.2083 21.8749C30.8194 21.736 30.4167 21.6666 30 21.6666C29.0833 21.6666 28.2983 21.9933 27.645 22.6466C26.9917 23.2999 26.6656 24.0844 26.6667 24.9999C26.6667 25.9166 26.9933 26.7016 27.6467 27.3549C28.3 28.0083 29.0844 28.3344 30 28.3333C30.4167 28.3333 30.8194 28.2638 31.2083 28.1249C31.5972 27.986 31.9444 27.7777 32.25 27.4999C32.3889 27.361 32.5489 27.2427 32.73 27.1449C32.9111 27.0471 33.1122 26.9988 33.3333 26.9999C33.8056 26.9999 34.2017 27.1599 34.5217 27.4799C34.8417 27.7999 35.0011 28.1955 35 28.6666V34.9999C35 35.4721 34.84 35.8683 34.52 36.1883C34.2 36.5083 33.8044 36.6677 33.3333 36.6666H6.66667C6.19444 36.6666 5.79889 36.5066 5.48 36.1866C5.16111 35.8666 5.00111 35.471 5 34.9999V28.6666Z" fill="#0F1019"/>
</g>
<defs>
<filter id="filter0_dd_583_463" x="-4" y="0" width="48" height="48" filterUnits="userSpaceOnUse" color-interpolation-filters="sRGB">
<feFlood flood-opacity="0" result="BackgroundImageFix"/>
<feColorMatrix in="SourceAlpha" type="matrix" values="0 0 0 0 0 0 0 0 0 0 0 0 0 0 0 0 0 0 127 0" result="hardAlpha"/>
<feOffset dy="4"/>
<feGaussianBlur stdDeviation="2"/>
<feComposite in2="hardAlpha" operator="out"/>
<feColorMatrix type="matrix" values="0 0 0 0 0 0 0 0 0 0 0 0 0 0 0 0 0 0 0.25 0"/>
<feBlend mode="normal" in2="BackgroundImageFix" result="effect1_dropShadow_583_463"/>
<feColorMatrix in="SourceAlpha" type="matrix" values="0 0 0 0 0 0 0 0 0 0 0 0 0 0 0 0 0 0 127 0" result="hardAlpha"/>
<feOffset dy="4"/>
<feGaussianBlur stdDeviation="2"/>
<feComposite in2="hardAlpha" operator="out"/>
<feColorMatrix type="matrix" values="0 0 0 0 0 0 0 0 0 0 0 0 0 0 0 0 0 0 0.25 0"/>
<feBlend mode="normal" in2="effect1_dropShadow_583_463" result="effect2_dropShadow_583_463"/>
<feBlend mode="normal" in="SourceGraphic" in2="effect2_dropShadow_583_463" result="shape"/>
</filter>
</defs>
</svg>
